<svg viewBox="0 0 256 256" xmlns="http://www.w3.org/2000/svg"><path fill="none" d="M0 0h256v256H0z"></path><path d="M180 48h0a28 28 0 0 1 28 28v0a28 28 0 0 1-28 28h-28 0V76a28 28 0 0 1 28-28ZM104 104H76a28 28 0 0 1-28-28h0a28 28 0 0 1 28-28h0a28 28 0 0 1 28 28v28h0ZM152 152h28a28 28 0 0 1 28 28v0a28 28 0 0 1-28 28h0a28 28 0 0 1-28-28v-28h0ZM76 208h0a28 28 0 0 1-28-28h0a28 28 0 0 1 28-28h28v28a28 28 0 0 1-28 28ZM104 104h48v48h-48z" fill="none" stroke="#000000" stroke-linecap="round" stroke-linejoin="round" stroke-width="12" class="stroke-000000"></path></svg>